<svg xmlns="http://www.w3.org/2000/svg" viewBox="0 0 1080 1080" fill="none">
  <!-- Black circular background -->
  <circle cx="540" cy="540" r="540" fill="#000000"></circle>

  <!-- Outer ring -->
  <circle cx="540" cy="540" r="500" stroke="#FFFFFF" stroke-width="20" opacity="0.2"></circle>

  <!-- Main chain path -->
  <path d="m398.56,332.66l57.44-33.16c53.05-30.63,119.36,7.66,119.36,68.91v142.88c0,28.43-15.16,54.7-39.78,68.91l-137.02,79.11c-47.15,27.22-47.15,95.27,0,122.49h0c21.88,12.63,48.84,12.63,70.72,0l167.95-96.97c49.24-28.43,79.57-80.97,79.57-137.82v-96.94c0-61.26-66.31-99.54-119.36-68.91l-128.17,74c-21.88,12.63-48.84,12.63-70.72,0h0c-47.15-27.22-47.15-95.27,0-122.49Z" stroke="#FFFFFF" stroke-width="20" stroke-miterlimit="10"></path>
</svg>